<svg width="231" height="161" viewBox="0 0 231 161" fill="none" xmlns="http://www.w3.org/2000/svg">
<path d="M148.44 125.636C171.569 125.636 190.319 106.887 190.319 83.7576C190.319 60.6285 171.569 41.8788 148.44 41.8788C125.311 41.8788 106.562 60.6285 106.562 83.7576C106.562 106.887 125.311 125.636 148.44 125.636Z" fill="url(#paint0_radial_179_2250)"/>
<path d="M90.1496 123.939C108.276 123.939 122.973 109.115 122.973 90.8317C122.973 72.5486 108.276 57.7249 90.1496 57.7249C72.0227 57.7249 57.3257 72.5486 57.3257 90.8317C57.3257 109.115 72.0227 123.939 90.1496 123.939Z" fill="url(#paint1_radial_179_2250)"/>
<path d="M95.0246 130.878C95.0837 130.589 97.7163 118.158 100.715 102.92C97.9882 120.803 96.3015 131.021 96.266 131.192C95.4187 134.978 92.0098 137.726 88.1635 137.726C87.7103 137.726 87.2571 137.686 86.8078 137.615H86.7842L86.7605 137.607L86.7211 137.599H86.7014L86.6817 137.591L85.9921 137.429L83.9704 136.945C83.3162 137.238 82.6265 137.445 81.9053 137.556C81.4679 137.627 81.0226 137.663 80.5812 137.663C80.0098 137.663 79.4383 137.603 78.8827 137.488C77.7753 137.266 76.6915 136.778 75.7378 136.089L75.4225 135.859L74.855 135.442C74.591 135.684 74.3151 135.91 74.0235 136.116L73.9762 136.152C73.9132 136.196 73.8541 136.243 73.7831 136.291C72.455 137.175 70.8235 137.659 69.188 137.659C68.786 137.659 68.3801 137.631 67.9939 137.571C65.9959 137.29 64.1082 136.215 62.8234 134.633C62.52 134.269 62.2481 133.876 62.0116 133.46C60.5574 136.009 57.787 137.655 54.9258 137.655H54.6894C51.8125 137.655 49.0381 136.009 47.5997 133.456C47.3554 133.876 47.0834 134.272 46.7879 134.625C45.5031 136.204 43.6194 137.282 41.6253 137.579C41.2312 137.639 40.8253 137.667 40.4233 137.667C38.7918 137.667 37.1563 137.175 35.8321 136.295C35.7691 136.251 35.7021 136.204 35.643 136.16L35.5917 136.12C35.3001 135.91 35.0203 135.684 34.7563 135.438L34.1888 135.851L33.8735 136.081C32.9237 136.774 31.8361 137.262 30.7405 137.488C30.1769 137.611 29.6016 137.671 29.0262 137.671C28.5848 137.671 28.1316 137.631 27.6902 137.56C27.1188 137.464 26.5671 137.318 26.035 137.112L23.5838 137.496L22.8271 137.615C22.3739 137.69 21.9128 137.73 21.4596 137.73C19.3749 137.73 17.3768 136.949 15.8202 135.514L15.8162 135.51C15.8123 135.51 15.8005 135.494 15.8005 135.494H15.7965C15.6665 135.367 15.5364 135.236 15.4025 135.097L15.3433 135.034C15.2015 134.879 15.0832 134.744 14.9808 134.613L14.9532 134.578C14.7483 134.32 14.5552 134.042 14.3778 133.753L14.3502 133.713C14.3226 133.666 14.2911 133.618 14.2596 133.567C14.2084 133.475 14.1611 133.384 14.1138 133.289L14.0901 133.245C14.031 133.131 13.9758 133.019 13.9167 132.901C13.8734 132.805 13.83 132.706 13.7906 132.615C13.7315 132.472 13.6763 132.326 13.6212 132.175L13.6015 132.119C13.5778 132.056 13.5581 131.996 13.5384 131.933C13.4556 131.675 13.3926 131.445 13.3414 131.219L13.3335 131.196V131.188C13.3019 131.041 11.6152 121.207 9.06152 103.761L9.06941 103.753C12.0054 118.618 14.5473 130.617 14.6064 130.902C15.4222 134.542 18.9296 136.925 22.6261 136.311L23.3946 136.188L22.8468 135.636C21.8025 134.586 21.038 133.313 20.636 131.949C20.4113 131.16 20.3089 130.486 20.2064 129.835C20.1631 129.538 20.1158 129.249 20.0606 128.951L18.634 120.248C18.0035 116.31 17.4044 112.397 16.8527 108.622C16.8172 108.372 16.9906 108.138 17.2429 108.098C17.4872 108.067 17.7079 108.225 17.7591 108.459C18.5394 112.175 19.3237 116.053 20.0921 119.982L21.7552 128.65C21.8104 128.923 21.8616 129.209 21.9168 129.49C22.0429 130.172 22.1729 130.882 22.3385 131.41C22.7956 132.897 23.769 134.205 25.0695 135.101C25.2114 135.2 25.3572 135.295 25.5069 135.383C26.2478 135.815 27.0518 136.108 27.907 136.247C28.77 136.39 29.641 136.366 30.4843 136.184C31.4144 135.989 32.3287 135.577 33.1326 134.994L33.4479 134.764L33.2233 134.443C32.5848 133.527 32.1356 132.528 31.8833 131.473C31.6942 130.66 31.6311 129.962 31.572 129.288C31.5484 129.007 31.5247 128.725 31.4893 128.452L30.6301 119.704C30.2518 115.708 29.9089 111.778 29.6094 108.031C29.5976 107.908 29.637 107.789 29.7158 107.694C29.7947 107.599 29.905 107.543 30.0272 107.531C30.2754 107.508 30.4843 107.682 30.5198 107.924C31.0557 111.647 31.5878 115.549 32.104 119.53L33.1996 128.257C33.2351 128.523 33.2666 128.797 33.3021 129.066C33.3888 129.796 33.4715 130.482 33.6134 131.029C33.775 131.667 34.0351 132.286 34.3779 132.873C34.8745 133.709 35.5563 134.451 36.3484 135.018L36.4115 135.066C36.4548 135.101 36.4982 135.129 36.5415 135.161C37.9602 136.108 39.7455 136.505 41.444 136.251C43.1268 135.997 44.715 135.089 45.8026 133.757C46.0746 133.436 46.315 133.079 46.5278 132.706L46.6145 132.548L46.5554 132.377C46.4253 132.004 46.311 131.612 46.2125 131.176C46.0824 130.569 46.0155 129.816 46.0115 128.872L45.9406 124.55C45.8381 119.078 45.7948 113.428 45.8105 107.274C45.8105 107.02 46.0154 106.814 46.2716 106.814C46.512 106.814 46.713 107.004 46.7288 107.246C47.0953 113.408 47.3751 119.05 47.5879 124.502L47.7692 128.82C47.8007 129.602 47.8243 130.169 47.9662 130.815C48.0963 131.326 48.2894 131.993 48.6243 132.583C48.644 132.623 48.6637 132.655 48.7032 132.718C49.913 134.911 52.2618 136.315 54.7012 136.315H54.8076C57.251 136.37 59.7141 134.939 60.9515 132.694C60.9712 132.663 60.9909 132.631 61.0067 132.603C61.2865 132.107 61.5032 131.521 61.6687 130.811C61.8067 130.2 61.8303 129.665 61.8619 128.92L62.0431 124.506C62.2441 119.344 62.5239 113.701 62.8983 107.25C62.9101 106.996 63.1348 106.806 63.383 106.818C63.6274 106.83 63.8166 107.032 63.8166 107.278C63.8205 113.737 63.7732 119.387 63.6786 124.554L63.6077 128.876C63.5998 129.479 63.588 130.391 63.4146 131.176C63.3239 131.596 63.2096 132 63.0757 132.377L63.0165 132.548L63.1032 132.706C63.3161 133.083 63.5604 133.436 63.8244 133.757C64.92 135.105 66.5082 136.009 68.191 136.247C69.8934 136.501 71.6826 136.104 73.0935 135.169C73.1368 135.137 73.1841 135.105 73.2235 135.073L73.2866 135.026C74.0826 134.463 74.7644 133.725 75.261 132.885C75.6078 132.298 75.86 131.675 76.0176 131.037C76.1555 130.482 76.2383 129.788 76.3289 129.054C76.3644 128.789 76.392 128.523 76.4314 128.257L77.527 119.538C78.0432 115.561 78.5753 111.655 79.1112 107.928C79.1309 107.805 79.194 107.698 79.2925 107.627C79.391 107.551 79.5132 107.52 79.6314 107.539C79.8718 107.571 80.0413 107.789 80.0255 108.031C79.7221 111.786 79.3792 115.712 79.0048 119.7L78.1457 128.44C78.1142 128.721 78.0866 128.995 78.0629 129.272C78.0038 129.95 77.9368 130.648 77.7556 131.465C77.5112 132.524 77.062 133.527 76.4235 134.443L76.2028 134.764L76.5181 134.99C77.3181 135.573 78.2363 135.981 79.1625 136.172C80.0098 136.35 80.8728 136.37 81.728 136.231C82.5911 136.092 83.4029 135.803 84.1398 135.375C84.2856 135.292 84.4314 135.196 84.5733 135.097C85.8896 134.197 86.8591 132.885 87.3044 131.402C87.466 130.866 87.596 130.153 87.7261 129.459C87.7812 129.181 87.8325 128.904 87.8837 128.634L89.5428 119.974C90.3152 116.041 91.0995 112.159 91.8798 108.447C91.931 108.198 92.1753 108.039 92.4236 108.09C92.6601 108.138 92.8177 108.368 92.7822 108.61C92.2345 112.381 91.6355 116.29 91.001 120.232L89.5743 128.931C89.5192 129.229 89.4719 129.522 89.4285 129.816C89.3261 130.466 89.2197 131.14 89.0029 131.929C88.6088 133.289 87.8482 134.566 86.7999 135.621L86.3113 136.124L87.0009 136.291L87.0403 136.299C87.4226 136.362 87.8049 136.394 88.1832 136.394C91.4069 136.394 94.2956 134.142 95.0286 130.866V130.878H95.0246Z" fill="#3B2D55"/>
<path d="M109.476 48.8865C109.476 56.7494 104.759 82.3763 100.723 102.9C97.724 118.134 95.0954 130.569 95.0324 130.854C94.2994 134.126 91.4107 136.382 88.187 136.382C87.8087 136.382 87.4264 136.354 87.0442 136.287L87.0047 136.279L86.3151 136.116L86.8038 135.613C87.852 134.562 88.6166 133.281 89.0067 131.921C89.2274 131.132 89.3299 130.458 89.4323 129.808C89.4757 129.514 89.523 129.225 89.5782 128.923L91.0048 120.224C91.6353 116.282 92.2343 112.369 92.7861 108.602C92.8215 108.36 92.6639 108.134 92.4274 108.082C92.1831 108.031 91.9348 108.189 91.8836 108.439C91.1033 112.151 90.319 116.029 89.5466 119.966L87.8875 128.63C87.8323 128.9 87.7811 129.177 87.7299 129.455C87.5998 130.145 87.4658 130.862 87.3082 131.398C86.8629 132.881 85.8934 134.197 84.5771 135.093C84.4353 135.192 84.2895 135.283 84.1436 135.371C83.4106 135.803 82.5949 136.092 81.7318 136.227C80.8766 136.366 80.0136 136.342 79.1663 136.168C78.2402 135.981 77.3298 135.573 76.5219 134.986L76.2066 134.756L76.4273 134.435C77.0658 133.515 77.515 132.516 77.7594 131.457C77.9406 130.644 78.0037 129.942 78.0667 129.264C78.0904 128.987 78.118 128.713 78.1495 128.432L79.0086 119.692C79.383 115.703 79.7298 111.778 80.0293 108.023C80.049 107.781 79.8756 107.563 79.6352 107.531C79.5131 107.511 79.3948 107.543 79.2963 107.619C79.1978 107.69 79.1347 107.801 79.115 107.92C78.5791 111.647 78.0471 115.553 77.5308 119.53L76.4352 128.249C76.3997 128.515 76.3643 128.781 76.3328 129.046C76.2421 129.784 76.1593 130.478 76.0214 131.029C75.8638 131.667 75.6116 132.29 75.2648 132.877C74.7682 133.717 74.0864 134.459 73.2904 135.018L73.2273 135.065C73.184 135.097 73.1406 135.129 73.0973 135.161C71.6864 136.096 69.8972 136.489 68.1948 136.239C66.5159 136.001 64.9238 135.093 63.8282 133.749C63.5642 133.432 63.3199 133.075 63.1071 132.698L63.0204 132.54L63.0795 132.369C63.2135 131.996 63.3277 131.588 63.4184 131.168C63.5957 130.379 63.6076 129.471 63.6115 128.868L63.6824 124.546C63.7809 119.379 63.8243 113.729 63.8204 107.27C63.8204 107.028 63.6273 106.822 63.3869 106.81C63.1386 106.798 62.9179 106.988 62.9021 107.242C62.5238 113.689 62.244 119.336 62.0469 124.498L61.8657 128.911C61.8302 129.657 61.8105 130.192 61.6726 130.803C61.507 131.513 61.2903 132.099 61.0105 132.595C60.9987 132.619 60.979 132.655 60.9553 132.686C59.7139 134.931 57.2509 136.358 54.8114 136.306H54.705C52.2656 136.306 49.9129 134.907 48.707 132.71C48.6675 132.647 48.6439 132.611 48.6281 132.575C48.2932 131.984 48.1001 131.318 47.97 130.807C47.8281 130.157 47.8045 129.593 47.773 128.812L47.5917 124.494C47.3789 119.046 47.0991 113.404 46.7326 107.238C46.7168 106.996 46.5158 106.806 46.2754 106.806C46.0193 106.806 45.8143 107.012 45.8143 107.266C45.8025 113.42 45.8459 119.07 45.9444 124.542L46.0153 128.864C46.0193 129.808 46.0863 130.561 46.2163 131.168C46.3188 131.604 46.4291 132 46.5592 132.369L46.6183 132.54L46.5316 132.698C46.3188 133.075 46.0744 133.428 45.8064 133.749C44.7227 135.081 43.1345 135.993 41.4478 136.243C39.7493 136.497 37.964 136.1 36.5453 135.153C36.502 135.125 36.4586 135.093 36.4153 135.057L36.3522 135.01C35.5601 134.443 34.8783 133.705 34.3817 132.865C34.0349 132.278 33.7748 131.659 33.6172 131.021C33.4753 130.474 33.3926 129.788 33.3059 129.058C33.2743 128.789 33.2428 128.515 33.2034 128.249L32.1078 119.522C31.5916 115.541 31.0596 111.635 30.5236 107.912C30.4881 107.674 30.2793 107.496 30.031 107.519C29.9088 107.531 29.7985 107.587 29.7196 107.682C29.6408 107.777 29.6054 107.896 29.6132 108.019C29.9167 111.766 30.2596 115.696 30.6339 119.692L31.4931 128.44C31.5246 128.713 31.5482 128.995 31.5758 129.276C31.6349 129.95 31.698 130.648 31.8871 131.461C32.1394 132.516 32.5886 133.515 33.2271 134.431L33.4517 134.752L33.1364 134.982C32.3364 135.569 31.4182 135.981 30.4881 136.176C29.6448 136.358 28.7778 136.378 27.9108 136.239C27.0556 136.096 26.2477 135.807 25.5108 135.375C25.3649 135.287 25.2191 135.192 25.0733 135.093C23.7689 134.197 22.7994 132.885 22.3423 131.402C22.1807 130.878 22.0506 130.168 21.9206 129.482C21.8654 129.201 21.8142 128.915 21.759 128.642L20.0959 119.974C19.3275 116.044 18.5432 112.167 17.7629 108.451C17.7117 108.217 17.491 108.055 17.2467 108.09C16.9944 108.126 16.821 108.36 16.8565 108.614C17.4082 112.389 18.0073 116.302 18.6378 120.24L20.0644 128.943C20.1196 129.241 20.1669 129.53 20.2102 129.827C20.3127 130.478 20.4152 131.152 20.6398 131.941C21.0457 133.301 21.8063 134.578 22.8506 135.628L23.3984 136.18L22.6299 136.299C18.9334 136.913 15.426 134.534 14.6102 130.89C14.5511 130.605 12.0092 118.606 9.07321 103.741C5.00619 83.0781 0.166748 56.8842 0.166748 48.8865C0.166748 20.1034 22.6418 0 54.8233 0C87.0008 0 109.476 20.1034 109.476 48.8865Z" fill="#57D1E5"/>
<path d="M15.8122 13.3151C6.94906 22.5737 1.86134 34.9728 1.86134 49.3346C1.86134 62.154 13.156 117.444 16.7068 134.502C15.6939 133.567 14.9452 132.326 14.622 130.882C14.4762 130.2 0.166748 62.6417 0.166748 48.8905C0.166748 34.3066 5.94018 21.9552 15.8122 13.3151Z" fill="#93E1EF"/>
<path d="M37.4555 78.8116C35.9462 78.8036 35.8122 81.0003 37.3018 81.1907C43.3748 81.833 49.6211 80.8616 55.2488 78.4428C60.9158 76.036 66.0468 72.1818 69.6961 67.1778C70.2597 66.4204 70.1375 65.3379 69.4006 64.7313C68.64 64.1008 67.5129 64.2118 66.8902 64.9771C65.1128 67.1461 63.099 69.093 60.9355 70.8614C54.3778 76.2184 45.9088 79.0257 37.4516 78.8116" fill="#4D9BB6"/>
<path d="M36.3208 78.4627C34.8114 78.4548 34.6774 80.6515 36.1671 80.8418C42.24 81.4842 48.4864 80.5127 54.114 78.0939C59.781 75.6871 64.9121 71.8329 68.5614 66.8289C69.1249 66.0716 69.0028 64.9891 68.2658 64.3824C67.5052 63.7519 66.3781 63.863 65.7554 64.6282C63.9781 66.7972 61.9643 68.7441 59.8007 70.5125C53.243 75.8695 44.774 78.6768 36.3168 78.4627" fill="#3B2D55"/>
<path d="M58.4646 30.6031L50.5315 29.9528L39.2802 26.2295L34.7797 21.4951C29.5265 22.4705 24.5373 25.1629 20.7303 29.5087C11.7884 39.7269 12.7106 55.2743 22.7836 64.1722C32.8565 73.066 48.3285 71.9915 57.2705 61.7772C65.1326 52.7961 65.3691 39.6873 58.4606 30.6071L58.4646 30.6031Z" fill="#4D9BB6"/>
<path d="M50.366 22.5499C51.6783 23.335 52.8921 24.2271 53.9995 25.2026C62.5907 32.7919 64.8646 45.6787 58.8035 55.9128C51.9581 67.4633 37.089 71.2619 25.5855 64.3903C14.082 57.5187 10.3027 42.5819 17.1441 31.0274C23.9855 19.4729 38.8585 15.6782 50.362 22.5499" fill="url(#paint2_linear_179_2250)"/>
<path d="M57.5426 43.9418C57.5269 54.5843 50.1574 60.4646 45.2943 59.4813C41.2194 58.6565 40.4154 49.6516 42.8627 47.1972C44.4706 45.5874 47.7574 45.0521 47.7574 43.9299C47.7574 42.8078 44.4746 42.2645 42.8706 40.6507C40.4273 38.1884 41.2549 29.1874 45.3337 28.3706C50.1968 27.3991 57.5545 33.2993 57.5426 43.9418Z" fill="#3B2D55"/>
<path d="M190.036 103.565C200.817 103.565 209.561 94.695 209.561 83.7575C209.561 72.82 200.821 63.95 190.036 63.95C179.251 63.95 170.511 72.816 170.511 83.7575C170.511 94.6989 179.251 103.565 190.036 103.565Z" fill="url(#paint3_radial_179_2250)"/>
<path d="M159.761 140.916C178.201 140.916 193.149 125.843 193.149 107.244C193.149 88.6441 178.201 73.5708 159.761 73.5708C141.32 73.5708 126.369 88.6481 126.369 107.244C126.369 125.839 141.316 140.916 159.761 140.916Z" fill="url(#paint4_linear_179_2250)"/>
<path d="M200.506 150.537C217.07 150.537 230.5 136.981 230.5 120.26C230.5 103.539 217.07 89.9827 200.506 89.9827C183.941 89.9827 170.511 103.539 170.511 120.26C170.511 136.981 183.941 150.537 200.506 150.537Z" fill="url(#paint5_radial_179_2250)"/>
<path d="M101.466 152.801C122.096 152.801 138.819 136.077 138.819 115.448C138.819 94.8176 122.096 78.0981 101.466 78.0981C80.8361 78.0981 64.1167 94.8215 64.1167 115.448C64.1167 136.074 80.8401 152.801 101.466 152.801Z" fill="url(#paint6_radial_179_2250)"/>
<path d="M66.9463 147.708C81.9489 147.708 94.111 135.419 94.111 120.26C94.111 105.101 81.9489 92.8125 66.9463 92.8125C51.9438 92.8125 39.7817 105.101 39.7817 120.26C39.7817 135.419 51.9438 147.708 66.9463 147.708Z" fill="url(#paint7_radial_179_2250)"/>
<path d="M147.308 160.724C172.313 160.724 192.583 140.328 192.583 115.167C192.583 90.0052 172.313 69.6094 147.308 69.6094C122.303 69.6094 102.034 90.0092 102.034 115.167C102.034 140.324 122.303 160.724 147.308 160.724Z" fill="url(#paint8_radial_179_2250)"/>
<defs>
<radialGradient id="paint0_radial_179_2250" cx="0" cy="0" r="1" gradientUnits="userSpaceOnUse" gradientTransform="translate(129.101 47.9851) scale(60.8287)">
<stop stop-color="#FBFBFC"/>
<stop offset="0.26" stop-color="#F8F9FA"/>
<stop offset="0.53" stop-color="#E5EAEE"/>
<stop offset="0.78" stop-color="#C0CED8"/>
<stop offset="1" stop-color="#C7D4DD"/>
</radialGradient>
<radialGradient id="paint1_radial_179_2250" cx="0" cy="0" r="1" gradientUnits="userSpaceOnUse" gradientTransform="translate(107.644 70.0849) scale(32.8383 33.1213)">
<stop stop-color="#FBFBFC"/>
<stop offset="0.26" stop-color="#F8F9FA"/>
<stop offset="0.53" stop-color="#E5EAEE"/>
<stop offset="0.78" stop-color="#C0CED8"/>
<stop offset="1" stop-color="#C7D4DD"/>
</radialGradient>
<linearGradient id="paint2_linear_179_2250" x1="45.5778" y1="67.0509" x2="30.3954" y2="20.5308" gradientUnits="userSpaceOnUse">
<stop stop-color="#CECAD5"/>
<stop offset="0.07" stop-color="#CECAD5"/>
<stop offset="0.66" stop-color="white"/>
<stop offset="1" stop-color="white"/>
</linearGradient>
<radialGradient id="paint3_radial_179_2250" cx="0" cy="0" r="1" gradientUnits="userSpaceOnUse" gradientTransform="translate(193.589 56.7913) scale(48.7574 49.464)">
<stop stop-color="#FBFBFC"/>
<stop offset="0.26" stop-color="#F8F9FA"/>
<stop offset="0.53" stop-color="#E5EAEE"/>
<stop offset="0.78" stop-color="#C0CED8"/>
<stop offset="1" stop-color="#C7D4DD"/>
</radialGradient>
<linearGradient id="paint4_linear_179_2250" x1="151.803" y1="99.2187" x2="172.75" y2="119.995" gradientUnits="userSpaceOnUse">
<stop stop-color="#B6C3D4" stop-opacity="0"/>
<stop offset="1" stop-color="#B6C3D4"/>
</linearGradient>
<radialGradient id="paint5_radial_179_2250" cx="0" cy="0" r="1" gradientUnits="userSpaceOnUse" gradientTransform="translate(235.409 86.0438) scale(66.491 67.1183)">
<stop stop-color="#FBFBFC"/>
<stop offset="0.15" stop-color="#F9FAFB"/>
<stop offset="0.26" stop-color="#F8F9FA"/>
<stop offset="0.53" stop-color="#E5EAEE"/>
<stop offset="0.78" stop-color="#C0CED8"/>
<stop offset="1" stop-color="#C7D4DD"/>
</radialGradient>
<radialGradient id="paint6_radial_179_2250" cx="0" cy="0" r="1" gradientUnits="userSpaceOnUse" gradientTransform="translate(93.1732 86.7147) scale(71.8882)">
<stop stop-color="#FBFBFC"/>
<stop offset="0.26" stop-color="#F8F9FA"/>
<stop offset="0.53" stop-color="#E5EAEE"/>
<stop offset="0.78" stop-color="#C0CED8"/>
<stop offset="1" stop-color="#C7D4DD"/>
</radialGradient>
<radialGradient id="paint7_radial_179_2250" cx="0" cy="0" r="1" gradientUnits="userSpaceOnUse" gradientTransform="translate(85.5014 104.146) scale(50.3291 50.8534)">
<stop stop-color="#FBFBFC"/>
<stop offset="0.26" stop-color="#F8F9FA"/>
<stop offset="0.53" stop-color="#E5EAEE"/>
<stop offset="0.78" stop-color="#C0CED8"/>
<stop offset="1" stop-color="#C7D4DD"/>
</radialGradient>
<radialGradient id="paint8_radial_179_2250" cx="0" cy="0" r="1" gradientUnits="userSpaceOnUse" gradientTransform="translate(131.076 86.4182) scale(87.3 87.8456)">
<stop stop-color="#FBFBFC"/>
<stop offset="0.26" stop-color="#F8F9FA"/>
<stop offset="0.53" stop-color="#E5EAEE"/>
<stop offset="0.78" stop-color="#C0CED8"/>
<stop offset="1" stop-color="#C7D4DD"/>
</radialGradient>
</defs>
</svg>
