<svg width="179" height="45" viewBox="0 0 179 45" fill="none" xmlns="http://www.w3.org/2000/svg">
<g clip-path="url(#clip0_50_1039)">
<path d="M47.6428 30.7082C48.2749 31.6581 49.0819 32.3583 50.0671 32.8072C51.0507 33.2576 52.0655 33.4821 53.1099 33.4821C53.693 33.4821 54.2879 33.3914 54.8962 33.2086C55.503 33.0257 56.0564 32.7522 56.5549 32.3865C57.0519 32.0208 57.4599 31.5719 57.7759 31.0352C58.0919 30.5001 58.2492 29.8787 58.2492 29.1726C58.2492 28.1751 57.9332 27.414 57.3011 26.8907C56.6691 26.3674 55.8858 25.9289 54.9511 25.5766C54.0149 25.2243 52.9957 24.8824 51.8904 24.5538C50.7836 24.2253 49.7644 23.7689 48.8297 23.1847C47.8936 22.6005 47.1102 21.8156 46.4797 20.83C45.8477 19.8444 45.5317 18.511 45.5317 16.8311C45.5317 16.0775 45.6949 15.2732 46.0242 14.4214C46.3521 13.5696 46.8684 12.7907 47.5731 12.0845C48.2778 11.3784 49.1828 10.7883 50.2881 10.3141C51.3934 9.83984 52.7242 9.60199 54.279 9.60199C55.6885 9.60199 57.0356 9.79673 58.3233 10.1862C59.6111 10.5757 60.7401 11.3665 61.7134 12.5602L58.8708 15.1528C58.4331 14.472 57.8145 13.9234 57.0118 13.5102C56.2107 13.0969 55.2983 12.8888 54.279 12.8888C53.2598 12.8888 52.4987 13.0166 51.8548 13.2723C51.2109 13.528 50.6946 13.8565 50.3059 14.2579C49.9172 14.6593 49.6442 15.0919 49.4855 15.5542C49.3267 16.0165 49.2481 16.4431 49.2481 16.8326C49.2481 17.9282 49.5626 18.7681 50.1961 19.3523C50.8282 19.9366 51.6115 20.4108 52.5477 20.7765C53.4823 21.1422 54.503 21.4707 55.6083 21.7621C56.7136 22.0549 57.7343 22.4622 58.669 22.9855C59.6037 23.5088 60.387 24.2149 61.0191 25.1038C61.6511 25.9928 61.9671 27.2163 61.9671 28.7742C61.9671 30.0154 61.7297 31.1363 61.2564 32.1338C60.7817 33.1328 60.1452 33.9727 59.3426 34.6535C58.5414 35.3358 57.5934 35.8591 56.5 36.2233C55.4066 36.589 54.2405 36.7704 53.0016 36.7704C51.3489 36.7704 49.7822 36.4775 48.3001 35.8933C46.818 35.3091 45.64 34.4082 44.7646 33.1907L47.6428 30.7082Z" fill="#3B2D55"/>
<path d="M77.9618 23.4047C77.355 22.7715 76.7171 22.2913 76.0495 21.9628C75.3804 21.6342 74.5851 21.4692 73.6623 21.4692C72.7395 21.4692 71.9799 21.6342 71.3123 21.9628C70.6432 22.2913 70.0854 22.7417 69.6358 23.3141C69.1863 23.8864 68.8451 24.5435 68.6151 25.2852C68.3837 26.0285 68.2694 26.8001 68.2694 27.6043C68.2694 28.4085 68.4029 29.1681 68.67 29.8862C68.937 30.6042 69.3139 31.2315 69.799 31.7667C70.2842 32.3018 70.8672 32.7225 71.5482 33.0258C72.2277 33.3305 72.9932 33.4821 73.8448 33.4821C74.7676 33.4821 75.5569 33.3171 76.2141 32.9886C76.8699 32.6601 77.4767 32.1799 78.036 31.5466L80.3682 33.8835C79.5181 34.8334 78.5286 35.5143 77.3981 35.929C76.269 36.3423 75.0718 36.5504 73.8077 36.5504C72.471 36.5504 71.25 36.3319 70.1447 35.8933C69.0394 35.4548 68.0855 34.8409 67.2843 34.05C66.4832 33.2592 65.863 32.3092 65.4253 31.2018C64.9877 30.0943 64.7696 28.8708 64.7696 27.5314C64.7696 26.192 64.9877 24.9627 65.4253 23.8433C65.863 22.7239 66.4757 21.7621 67.265 20.9579C68.0543 20.1551 69.0023 19.5278 70.1076 19.0774C71.2129 18.6269 72.4458 18.4025 73.8062 18.4025C75.0688 18.4025 76.2779 18.6284 77.4322 19.0774C78.5864 19.5278 79.5879 20.2161 80.4395 21.1407L77.9618 23.4047Z" fill="#3B2D55"/>
<path d="M81.6486 18.8038H85.4392L90.5547 32.3152H90.6289L95.5352 18.8038H99.0335L90.8336 39.8372C90.5428 40.5909 90.2402 41.2792 89.9257 41.9005C89.6111 42.5219 89.2358 43.0511 88.8011 43.4897C88.3649 43.9282 87.8397 44.2686 87.2211 44.5124C86.6039 44.7562 85.8487 44.8781 84.9526 44.8781C84.469 44.8781 83.9779 44.8469 83.4824 44.7874C82.9868 44.7265 82.5091 44.5986 82.0492 44.4039L82.4483 41.41C83.0996 41.6776 83.7509 41.8113 84.4037 41.8113C84.9111 41.8113 85.3384 41.7444 85.6885 41.6107C86.0386 41.4769 86.3398 41.2821 86.5935 41.0264C86.8472 40.7707 87.0579 40.472 87.227 40.1315C87.3946 39.7896 87.5652 39.4016 87.7344 38.9631L88.7966 36.2248L81.6486 18.8068V18.8038Z" fill="#3B2D55"/>
<path d="M101.471 8.50641H104.751V36.1119H101.471V8.50641Z" fill="#3B2D55"/>
<path d="M108.311 8.50641H111.591V36.1119H108.311V8.50641Z" fill="#3B2D55"/>
<path d="M116.18 20.9222C117.102 20.0704 118.172 19.4312 119.387 19.0045C120.602 18.5794 121.816 18.3653 123.031 18.3653C124.246 18.3653 125.381 18.5244 126.293 18.8395C127.204 19.1561 127.952 19.5828 128.534 20.118C129.117 20.6531 129.548 21.2685 129.827 21.9613C130.106 22.6555 130.246 23.3795 130.246 24.1346V32.9722C130.246 33.5817 130.258 34.1407 130.283 34.6521C130.307 35.1634 130.344 35.651 130.393 36.1134H127.477C127.405 35.2363 127.368 34.3607 127.368 33.4836H127.295C126.566 34.603 125.703 35.3953 124.707 35.8577C123.712 36.32 122.558 36.5519 121.245 36.5519C120.444 36.5519 119.678 36.4419 118.95 36.2234C118.221 36.0048 117.583 35.6763 117.036 35.2378C116.49 34.7992 116.058 34.2581 115.742 33.613C115.426 32.9678 115.269 32.22 115.269 31.3668C115.269 30.2474 115.518 29.3094 116.016 28.5557C116.513 27.802 117.194 27.1866 118.058 26.7123C118.92 26.2381 119.929 25.8977 121.083 25.6896C122.237 25.483 123.47 25.3789 124.782 25.3789H127.186V24.649C127.186 24.2105 127.102 23.7719 126.931 23.3349C126.761 22.8963 126.506 22.5009 126.166 22.1486C125.826 21.7963 125.4 21.5153 124.89 21.3087C124.38 21.1021 123.771 20.998 123.068 20.998C122.436 20.998 121.884 21.0589 121.409 21.1808C120.935 21.3027 120.504 21.4544 120.116 21.6372C119.727 21.8201 119.374 22.0326 119.059 22.2764C118.743 22.5202 118.439 22.7507 118.148 22.9707L116.181 20.9252L116.18 20.9222ZM125.437 27.7871C124.66 27.7871 123.863 27.8302 123.05 27.915C122.236 28.0012 121.495 28.1647 120.828 28.4085C120.159 28.6523 119.613 28.9927 119.188 29.4313C118.763 29.8698 118.55 30.4302 118.55 31.1111C118.55 32.11 118.884 32.8281 119.553 33.2651C120.221 33.7036 121.126 33.9222 122.268 33.9222C123.167 33.9222 123.931 33.7705 124.565 33.4658C125.195 33.161 125.706 32.7656 126.096 32.2795C126.485 31.7934 126.764 31.2508 126.934 30.6547C127.103 30.0586 127.189 29.4684 127.189 28.8842V27.7886H125.44L125.437 27.7871Z" fill="#3B2D55"/>
<path d="M134.581 10.2591H143.582C145.404 10.2591 147.002 10.4657 148.374 10.8805C149.746 11.2952 150.936 11.8482 151.945 12.5425C152.952 13.2367 153.791 14.0335 154.46 14.9343C155.127 15.8352 155.655 16.7598 156.046 17.7097C156.434 18.6597 156.713 19.6081 156.884 20.558C157.053 21.5079 157.139 22.3835 157.139 23.1877C157.139 24.8437 156.835 26.4433 156.228 27.9893C155.62 29.5353 154.721 30.9104 153.531 32.116C152.34 33.3216 150.863 34.2894 149.102 35.0193C147.34 35.7492 145.306 36.1149 142.997 36.1149H134.579V10.2591H134.581ZM138.081 32.8266H142.49C143.972 32.8266 145.374 32.6259 146.699 32.2245C148.022 31.8232 149.182 31.2196 150.179 30.4169C151.175 29.6141 151.966 28.6092 152.549 27.4036C153.132 26.198 153.423 24.7932 153.423 23.1862C153.423 22.3582 153.289 21.392 153.022 20.283C152.755 19.1755 152.251 18.123 151.51 17.124C150.768 16.1266 149.743 15.2807 148.43 14.5865C147.119 13.8923 145.417 13.5459 143.328 13.5459H138.081V32.8266Z" fill="#3B2D55"/>
<path d="M161.071 10.2591H170.036C171.153 10.2591 172.192 10.3929 173.152 10.6605C174.112 10.928 174.938 11.3235 175.629 11.8467C176.322 12.37 176.868 13.0405 177.269 13.8551C177.669 14.6712 177.87 15.6256 177.87 16.7212C177.87 18.2063 177.456 19.4178 176.631 20.3543C175.804 21.2924 174.736 21.9791 173.425 22.4177V22.4905C174.202 22.5396 174.93 22.7403 175.611 23.0926C176.291 23.4464 176.881 23.9087 177.378 24.4795C177.875 25.0519 178.272 25.7149 178.562 26.47C178.855 27.2252 179 28.0399 179 28.9169C179 30.0854 178.763 31.1141 178.289 32.003C177.816 32.892 177.166 33.6412 176.34 34.2492C175.514 34.8587 174.555 35.321 173.462 35.6362C172.368 35.9528 171.19 36.1104 169.926 36.1104H161.071V10.2591ZM164.569 20.995H169.343C169.999 20.995 170.619 20.9281 171.202 20.7944C171.785 20.6606 172.296 20.4361 172.733 20.1195C173.171 19.8028 173.517 19.4014 173.772 18.9139C174.027 18.4277 174.155 17.8316 174.155 17.124C174.155 16.1013 173.827 15.2138 173.171 14.4586C172.515 13.7049 171.483 13.3274 170.073 13.3274H164.57V20.995H164.569ZM164.569 33.0451H169.707C170.241 33.0451 170.83 32.9901 171.474 32.8801C172.118 32.7701 172.718 32.5516 173.278 32.223C173.836 31.8945 174.31 31.45 174.699 30.8896C175.088 30.3292 175.282 29.5874 175.282 28.6627C175.282 27.1286 174.784 25.9795 173.788 25.2124C172.793 24.4453 171.444 24.0618 169.744 24.0618H164.569V33.0451Z" fill="#3B2D55"/>
</g>
<g clip-path="url(#clip1_50_1039)">
<path d="M17.6805 0.776611C7.75482 0.776611 0.821777 6.96414 0.821777 15.8242C0.821777 18.2864 2.31451 26.3484 3.57211 32.7065C4.47748 37.2824 5.26123 40.9752 5.28015 41.0637C5.53149 42.1842 6.61343 42.9173 7.75392 42.7277L7.99084 42.6907L7.82148 42.521C7.49987 42.1977 7.26385 41.805 7.13953 41.386C7.07016 41.1432 7.03773 40.9355 7.0071 40.736C6.99269 40.6457 6.97918 40.5554 6.96206 40.4651L6.52244 37.7853C6.32785 36.5736 6.14317 35.3692 5.97381 34.2071C5.963 34.1295 6.01615 34.0573 6.09363 34.0464C6.1693 34.0365 6.23686 34.0852 6.25308 34.1575C6.49361 35.3014 6.73594 36.4951 6.97377 37.704L7.48636 40.3721C7.50348 40.4561 7.51969 40.5436 7.53591 40.6312C7.57555 40.8416 7.61519 41.0601 7.66563 41.2217C7.80707 41.6786 8.10616 42.0822 8.50794 42.3585C8.55208 42.3891 8.59622 42.4189 8.64217 42.4451C8.86919 42.5779 9.11872 42.6681 9.38268 42.7106C9.64933 42.7539 9.91689 42.7476 10.1772 42.6916C10.4637 42.632 10.7457 42.5047 10.9934 42.325L11.0907 42.2546L11.0222 42.1562C10.8259 41.8745 10.6862 41.5666 10.6088 41.2425C10.5511 40.9933 10.5313 40.7784 10.5133 40.5707C10.5052 40.484 10.4979 40.3983 10.4871 40.3125L10.2223 37.6201C10.1061 36.3894 9.99977 35.1805 9.90788 34.0266C9.90518 33.9886 9.91689 33.9525 9.94121 33.9236C9.96554 33.8947 9.99977 33.8776 10.0376 33.874C10.1142 33.8667 10.1781 33.9209 10.189 33.995C10.3538 35.1407 10.5187 36.3425 10.6772 37.5677L11.0159 40.2529C11.0268 40.3351 11.0367 40.419 11.0475 40.5021C11.0745 40.726 11.0997 40.9382 11.143 41.1061C11.1925 41.303 11.2718 41.4935 11.379 41.6741C11.5321 41.9314 11.742 42.1598 11.9871 42.3341L12.0069 42.3485C12.0204 42.3584 12.0339 42.3693 12.0474 42.3774C12.4843 42.669 13.0357 42.7909 13.56 42.7133C14.0789 42.6365 14.5698 42.3566 14.9041 41.9467C14.9869 41.8474 15.0617 41.7391 15.1275 41.6226L15.1545 41.5738L15.1356 41.5215C15.096 41.4077 15.0608 41.2867 15.0293 41.1522C14.9887 40.9653 14.9689 40.7332 14.9671 40.4434L14.9464 39.1135C14.9158 37.4287 14.9023 35.6897 14.9059 33.7954C14.9059 33.7169 14.9689 33.6537 15.0473 33.6537C15.1221 33.6537 15.1842 33.7123 15.1887 33.7873C15.3013 35.6843 15.3878 37.4214 15.4536 39.099L15.5094 40.4272C15.5194 40.6682 15.5266 40.8416 15.5707 41.0411C15.6103 41.1991 15.6698 41.4041 15.7734 41.5865C15.7788 41.5973 15.786 41.6081 15.7977 41.6271C16.1707 42.3025 16.8959 42.7341 17.649 42.7341H17.6814C18.4345 42.7503 19.1949 42.3097 19.5768 41.6199C19.5831 41.61 19.5895 41.6 19.594 41.5919C19.6804 41.4393 19.7471 41.2587 19.7985 41.0393C19.8408 40.8515 19.848 40.6863 19.8579 40.457L19.9147 39.0981C19.9759 37.509 20.0624 35.7718 20.1786 33.7864C20.1831 33.7078 20.2507 33.6491 20.3282 33.6528C20.4029 33.6573 20.4615 33.7196 20.4615 33.7945C20.4633 35.7827 20.4489 37.5226 20.4191 39.1125L20.3975 40.4425C20.3957 40.6276 20.3921 40.9084 20.3372 41.1504C20.3092 41.2804 20.2732 41.405 20.2327 41.5206L20.2147 41.5729L20.2417 41.6217C20.3065 41.7382 20.3822 41.8465 20.4642 41.9449C20.802 42.3594 21.293 42.6383 21.8101 42.7115C22.3353 42.7891 22.8875 42.6672 23.3226 42.3792C23.3361 42.3702 23.3497 42.3603 23.3632 42.3503L23.383 42.3359C23.628 42.1634 23.8388 41.935 23.992 41.6768C24.0992 41.4962 24.1776 41.3039 24.2253 41.107C24.2676 40.9364 24.2938 40.7233 24.3208 40.4967C24.3307 40.4154 24.3406 40.3333 24.3514 40.252L24.6892 37.5686C24.8487 36.3452 25.0126 35.1425 25.1784 33.995C25.1838 33.957 25.2036 33.9236 25.2343 33.902C25.2649 33.8794 25.3018 33.8694 25.3388 33.8749C25.4126 33.8857 25.4658 33.9525 25.4595 34.0266C25.3667 35.1823 25.2604 36.3912 25.1451 37.6192L24.8802 40.3098C24.8703 40.3956 24.8622 40.4804 24.855 40.5662C24.8361 40.7748 24.8163 40.9906 24.7595 41.2407C24.6838 41.5666 24.5451 41.8754 24.3487 42.158L24.2802 42.2564L24.3775 42.3268C24.6253 42.5065 24.9072 42.6329 25.1928 42.6907C25.4541 42.7449 25.7198 42.7512 25.9838 42.7088C26.2495 42.6672 26.5 42.5779 26.7279 42.4451C26.7738 42.4189 26.818 42.3891 26.8621 42.3594C27.2675 42.0822 27.5666 41.6786 27.7044 41.2217C27.754 41.0574 27.7945 40.8371 27.8342 40.6249C27.8504 40.54 27.8657 40.4542 27.8828 40.3712L28.3954 37.7049C28.6332 36.4942 28.8755 35.2996 29.1161 34.1575C29.1323 34.0807 29.208 34.032 29.2836 34.0473C29.3566 34.0627 29.4053 34.1331 29.3944 34.2071C29.2251 35.3674 29.0404 36.5709 28.8458 37.7853L28.4062 40.4633C28.3891 40.5554 28.3756 40.6448 28.3612 40.735C28.3296 40.9355 28.2972 41.1432 28.2296 41.386C28.108 41.8059 27.8729 42.1986 27.5495 42.5228L27.399 42.6781L27.6116 42.7286L27.6234 42.7313C27.7423 42.7512 27.8594 42.7602 27.9765 42.7602C28.971 42.7602 29.8629 42.0668 30.0881 41.0592C30.107 40.9698 30.9187 37.1433 31.8439 32.4537C33.0916 26.1335 34.5456 18.2449 34.5456 15.8251C34.5393 6.96414 27.6071 0.776611 17.6805 0.776611Z" fill="#57D1E5"/>
<path d="M31.7898 32.6939C30.8538 37.4377 30.0845 40.9996 30.0728 41.0565C29.8575 42.0163 28.9458 42.7025 27.9693 42.7025C27.8549 42.7025 27.7387 42.6925 27.617 42.6727L27.5026 42.6456L27.5828 42.5625C27.9134 42.232 28.1531 41.8303 28.2774 41.4005C28.3458 41.1567 28.3783 40.949 28.4107 40.7432L28.4152 40.7107C28.4278 40.6321 28.4404 40.5536 28.4548 40.4714L28.8945 37.7934C29.0891 36.5799 29.2737 35.3755 29.4431 34.2153C29.4584 34.1114 29.3899 34.013 29.2872 33.9913C29.235 33.9805 29.1827 33.9913 29.1386 34.0193C29.0945 34.0482 29.0629 34.0934 29.053 34.1448C28.8143 35.2753 28.572 36.4689 28.3314 37.6932L27.8197 40.3594C27.8071 40.419 27.7954 40.4795 27.7846 40.54L27.7693 40.6213C27.7306 40.8299 27.69 41.0466 27.6423 41.2055C27.5089 41.6497 27.218 42.0433 26.8225 42.3133C26.7801 42.3422 26.7369 42.3711 26.6919 42.3973C26.4693 42.5273 26.2261 42.6131 25.9676 42.6537C25.7108 42.6952 25.4523 42.6889 25.1973 42.6356C24.9199 42.5797 24.646 42.4569 24.4046 42.2817L24.3532 42.2438L24.3902 42.1914C24.5919 41.9025 24.7325 41.5874 24.81 41.2542C24.8676 41.0023 24.8874 40.7856 24.9064 40.5716C24.9145 40.4868 24.9226 40.4019 24.9316 40.3161L25.1964 37.6255C25.3144 36.3741 25.4207 35.1651 25.5108 34.032C25.5189 33.9272 25.4442 33.8342 25.3406 33.8189C25.2874 33.8117 25.2361 33.8252 25.1937 33.8568C25.1505 33.8884 25.1226 33.9354 25.1154 33.9877C24.9514 35.1227 24.7865 36.3253 24.6262 37.5623L24.2884 40.2457C24.2775 40.3279 24.2676 40.41 24.2577 40.494C24.2307 40.717 24.2046 40.9283 24.164 41.0944C24.1172 41.2849 24.0406 41.4718 23.937 41.6479C23.7884 41.8998 23.5839 42.121 23.3434 42.2907L23.3235 42.3052C23.3109 42.3151 23.2983 42.3241 23.2857 42.3323C22.8614 42.6131 22.3245 42.7313 21.8128 42.6555C21.3083 42.5842 20.8308 42.3124 20.5029 41.9097C20.4228 41.8131 20.3498 41.7075 20.2867 41.5955L20.2723 41.5702L20.2822 41.5422C20.3237 41.4249 20.3597 41.2976 20.3885 41.1657C20.4453 40.9156 20.448 40.6222 20.4498 40.447L20.4714 39.1171C20.5011 37.5469 20.5155 35.8062 20.5137 33.7972C20.5137 33.6925 20.4309 33.6049 20.3255 33.5986C20.2165 33.5932 20.1228 33.6771 20.1165 33.7855C20.0012 35.7601 19.9147 37.4973 19.8534 39.0981L19.7967 40.457C19.7867 40.6827 19.7795 40.8461 19.7381 41.0276C19.6877 41.2416 19.6228 41.4167 19.5381 41.5684C19.5354 41.5738 19.5309 41.5811 19.5228 41.5928C19.1606 42.2456 18.4391 42.6781 17.7166 42.6781C17.703 42.6781 17.6904 42.6781 17.6778 42.6781H17.6454C16.913 42.6781 16.2058 42.2546 15.8428 41.5964C15.832 41.5793 15.8257 41.5702 15.8202 41.5594C15.7203 41.3824 15.6626 41.1829 15.6239 41.0303C15.5806 40.8353 15.5734 40.6637 15.5644 40.4263L15.5085 39.0981C15.4437 37.4241 15.3572 35.6861 15.2437 33.7855C15.2374 33.6808 15.1509 33.5986 15.0455 33.5977C14.9356 33.5977 14.8473 33.6871 14.8473 33.7963C14.8437 35.6978 14.8572 37.4377 14.8879 39.1153L14.9086 40.4443C14.9095 40.7387 14.9302 40.9743 14.9716 41.1657C15.0023 41.3003 15.0383 41.4231 15.0797 41.5413L15.0896 41.5693L15.0752 41.5946C15.0122 41.7066 14.9392 41.8131 14.8581 41.9097C14.532 42.3097 14.0546 42.5815 13.5492 42.6564C13.0366 42.7323 12.5024 42.6131 12.0763 42.3296C12.0654 42.3223 12.0546 42.3142 12.0384 42.3025L12.0177 42.2871C11.779 42.1174 11.5745 41.8953 11.4258 41.6452C11.3213 41.4691 11.2448 41.2831 11.1961 41.0926C11.1547 40.9283 11.1286 40.7197 11.1006 40.4868C11.0907 40.4064 11.0808 40.3251 11.07 40.2466L10.7313 37.5614C10.5691 36.3118 10.4043 35.1091 10.243 33.9868C10.2268 33.8803 10.1403 33.8072 10.0304 33.8171C9.97725 33.8216 9.9286 33.846 9.89527 33.8866C9.86104 33.9272 9.84392 33.9787 9.84843 34.032C9.94121 35.1904 10.0475 36.3994 10.1628 37.6264L10.4286 40.3197C10.4385 40.4046 10.4457 40.4895 10.4547 40.5807C10.4736 40.7892 10.4925 41.0041 10.552 41.256C10.6313 41.5874 10.7736 41.9016 10.9736 42.1887L11.0105 42.2411L10.9592 42.279C10.7178 42.4542 10.443 42.5779 10.1646 42.6356C9.91149 42.6907 9.65114 42.697 9.39079 42.6546C9.13404 42.6131 8.89171 42.5264 8.6701 42.3964C8.62596 42.3702 8.58181 42.3413 8.53947 42.3115C8.1476 42.0424 7.85662 41.6497 7.71879 41.2046C7.67104 41.0502 7.6323 40.8407 7.59447 40.6384L7.58726 40.6023C7.57195 40.5202 7.55663 40.438 7.54042 40.3604L7.02782 37.6923C6.79 36.4815 6.54766 35.2879 6.30713 34.1439C6.28551 34.041 6.19002 33.9742 6.08372 33.9877C5.97562 34.004 5.89994 34.1051 5.91616 34.2135C6.08642 35.3755 6.2711 36.5799 6.46569 37.7925L6.90531 40.4732C6.91972 40.5536 6.93233 40.633 6.94585 40.7134L6.95035 40.7423C6.98188 40.9436 7.01431 41.1522 7.08458 41.4005C7.2116 41.8285 7.45213 42.2293 7.78095 42.5589L7.87103 42.6492L7.74491 42.6691C6.63595 42.8523 5.58104 42.1409 5.3351 41.0456C5.25222 40.6547 4.44145 37.0955 3.57031 32.6912C3.57031 32.6912 4.82972 41.1495 4.83422 41.1702C4.84954 41.2407 4.87026 41.3138 4.89638 41.396L4.92251 41.4709C4.93962 41.5179 4.95674 41.5639 4.97566 41.61C4.98827 41.6398 5.00178 41.6695 5.0153 41.7002C5.03241 41.7373 5.05043 41.7734 5.06935 41.8077L5.07656 41.8212C5.09187 41.8501 5.10718 41.8799 5.1234 41.9079C5.13331 41.9242 5.14232 41.9395 5.15223 41.9549L5.15943 41.9666C5.21619 42.0587 5.27745 42.1463 5.34051 42.2257L5.34952 42.2375C5.38285 42.279 5.41978 42.3214 5.46483 42.3711L5.48375 42.391C5.52518 42.4352 5.56572 42.4767 5.60987 42.5165L5.62338 42.5291C6.11075 42.9742 6.73865 43.2189 7.39267 43.2189C7.53681 43.2189 7.68185 43.2072 7.82419 43.1828L8.79892 43.0302C8.96198 43.0916 9.13224 43.1377 9.30611 43.1656C9.62681 43.218 9.95473 43.2099 10.2682 43.1422C10.6151 43.0699 10.9565 42.9164 11.2565 42.6988L11.4907 42.5282C11.5646 42.5941 11.6411 42.6555 11.7177 42.7106L11.733 42.7223C11.7529 42.7377 11.7745 42.753 11.7943 42.7657C12.3159 43.1133 12.9915 43.2632 13.6203 43.1702C14.25 43.0772 14.8437 42.7386 15.2491 42.242C15.3221 42.1553 15.3914 42.0596 15.4554 41.9567C15.9202 42.7124 16.7689 43.1945 17.6427 43.1945H17.7157C18.585 43.1945 19.4327 42.7124 19.9021 41.9576C19.9651 42.0587 20.0345 42.1544 20.1093 42.2438C20.5164 42.7431 21.111 43.0808 21.7398 43.1693C21.8632 43.1873 21.9894 43.1963 22.1173 43.1963C22.6326 43.1963 23.147 43.0437 23.5668 42.7657C23.5893 42.7503 23.6082 42.7368 23.628 42.7223L23.6415 42.7124C23.7199 42.6573 23.7956 42.5959 23.8686 42.5318L24.1028 42.7025C24.4028 42.9201 24.746 43.0735 25.0946 43.144C25.4063 43.209 25.7324 43.2162 26.0459 43.1656C26.2658 43.1313 26.4784 43.069 26.6792 42.9815L27.5026 43.1783L27.5405 43.1855C27.681 43.209 27.8242 43.2207 27.9675 43.2207C29.18 43.2207 30.2548 42.3557 30.5223 41.1639C30.5313 41.1215 31.7916 32.6903 31.7916 32.6903L31.7898 32.6939Z" fill="#3B2D55"/>
<path d="M5.6477 4.87482C2.60188 7.53474 0.821777 11.3359 0.821777 15.8242C0.821777 20.0579 5.20267 40.8524 5.24772 41.0628C5.34681 41.507 5.66391 41.8582 5.97561 42.1471C4.88107 36.8968 1.34428 19.9071 1.34428 15.9623C1.34428 11.5409 2.91358 7.72525 5.6477 4.87482Z" fill="#93E1EF"/>
<path d="M13.1672 7.27203C9.1232 7.27203 5.83325 10.5694 5.83325 14.6225C5.83325 18.6756 9.1232 21.9729 13.1672 21.9729C17.2111 21.9729 20.5011 18.6756 20.5011 14.6225C20.5011 10.5694 17.2111 7.27203 13.1672 7.27203Z" fill="#4D9BB6"/>
<path d="M5.10626 14.0293C5.10626 18.0824 8.39621 21.3797 12.4402 21.3797C16.4842 21.3797 19.7741 18.0824 19.7741 14.0293C19.7741 9.9762 16.4842 6.67883 12.4402 6.67883C8.39621 6.67883 5.10626 9.9762 5.10626 14.0293Z" fill="white"/>
<path d="M7.92866 24.4071C12.387 25.059 17.0634 23.9449 20.7461 21.3499C21.2578 21.0078 21.7848 21.7508 21.284 22.121C19.3318 23.4555 17.1292 24.4162 14.8293 24.9371C12.5312 25.459 10.1376 25.5421 7.81425 25.1818C7.60075 25.1484 7.45481 24.9489 7.48724 24.7349C7.51967 24.5227 7.71696 24.3764 7.92956 24.4062" fill="#4D9BB6"/>
<path d="M21.2624 22.5761C21.1371 21.9829 20.5993 21.5179 20.0093 21.4971C19.3895 21.4538 19.43 20.541 20.0516 20.5536C20.5552 20.6204 21.0236 20.8886 21.3497 21.2542C21.629 21.5242 22.2434 22.7377 21.5939 22.8271C21.4344 22.8397 21.293 22.7296 21.2615 22.5761" fill="#4D9BB6"/>
<path d="M7.78181 24.0749C12.2402 24.7268 16.9166 23.6126 20.5993 21.0177C21.111 20.6755 21.638 21.4186 21.1371 21.7887C19.1849 23.1232 16.9823 24.0839 14.6824 24.6049C12.3843 25.1267 9.99072 25.2098 7.6674 24.8496C7.45389 24.8161 7.30795 24.6166 7.34039 24.4026C7.37282 24.1904 7.57011 24.0442 7.78271 24.074" fill="#3B2D55"/>
<path d="M21.1155 22.2447C20.9903 21.6515 20.4525 21.1865 19.8624 21.1658C19.2426 21.1224 19.2832 20.2096 19.9048 20.2222C20.4083 20.2891 20.8768 20.5572 21.2029 20.9229C21.4822 21.1928 22.0966 22.4072 21.447 22.4957C21.2876 22.5084 21.1461 22.3982 21.1146 22.2447" fill="#3B2D55"/>
<path d="M17.4454 14.1368C17.3382 17.2238 15.1383 18.8562 13.7347 18.523C12.5582 18.244 12.4123 15.6238 13.1483 14.9367C13.6311 14.4853 14.5915 14.3625 14.6032 14.0365C14.6149 13.7106 13.6654 13.521 13.2149 13.037C12.5294 12.2994 12.8573 9.69633 14.05 9.5004C15.4725 9.26655 17.5535 11.0489 17.4463 14.1359" fill="#3B2D55"/>
</g>
<defs>
<clipPath id="clip0_50_1039">
<rect width="134.235" height="36.3702" fill="white" transform="translate(44.7646 8.50641)"/>
</clipPath>
<clipPath id="clip1_50_1039">
<rect width="34.4056" height="42.4468" fill="white" transform="translate(0.46521 0.776611)"/>
</clipPath>
</defs>
</svg>
