<svg width="207" height="119" viewBox="0 0 207 119" fill="none" xmlns="http://www.w3.org/2000/svg">
<path d="M154.498 72.1335V88.1303C154.498 92.3247 166.176 95.7244 180.582 95.7244C194.989 95.7244 206.667 92.3247 206.667 88.1303V72.1335H154.498Z" fill="#D8E5EB"/>
<path d="M180.582 79.9232C194.988 79.9232 206.667 76.5232 206.667 72.329C206.667 68.1349 194.988 64.7349 180.582 64.7349C166.177 64.7349 154.498 68.1349 154.498 72.329C154.498 76.5232 166.177 79.9232 180.582 79.9232Z" fill="white"/>
<path d="M180.582 79.5325C194.988 79.5325 206.667 76.1325 206.667 71.9384C206.667 67.7443 194.988 64.3442 180.582 64.3442C166.177 64.3442 154.498 67.7443 154.498 71.9384C154.498 76.1325 166.177 79.5325 180.582 79.5325Z" fill="#95A7BA"/>
<path d="M154.498 54.397V70.3937C154.498 74.5882 166.176 77.9879 180.582 77.9879C194.989 77.9879 206.667 74.5882 206.667 70.3937V54.397H154.498Z" fill="#D8E5EB"/>
<path d="M180.582 62.1866C194.988 62.1866 206.667 58.7866 206.667 54.5924C206.667 50.3983 194.988 46.9983 180.582 46.9983C166.177 46.9983 154.498 50.3983 154.498 54.5924C154.498 58.7866 166.177 62.1866 180.582 62.1866Z" fill="white"/>
<path d="M180.582 61.796C194.988 61.796 206.667 58.396 206.667 54.2018C206.667 50.0077 194.988 46.6077 180.582 46.6077C166.177 46.6077 154.498 50.0077 154.498 54.2018C154.498 58.396 166.177 61.796 180.582 61.796Z" fill="#95A7BA"/>
<path d="M154.498 36.7893V52.786C154.498 56.9805 166.176 60.3802 180.582 60.3802C194.989 60.3802 206.667 56.9805 206.667 52.786V36.7893H154.498Z" fill="#D8E5EB"/>
<path d="M180.582 44.5789C194.988 44.5789 206.667 41.1789 206.667 36.9848C206.667 32.7906 194.988 29.3906 180.582 29.3906C166.177 29.3906 154.498 32.7906 154.498 36.9848C154.498 41.1789 166.177 44.5789 180.582 44.5789Z" fill="white"/>
<path d="M180.582 44.1883C194.988 44.1883 206.667 40.7883 206.667 36.5942C206.667 32.4 194.988 29 180.582 29C166.177 29 154.498 32.4 154.498 36.5942C154.498 40.7883 166.177 44.1883 180.582 44.1883Z" fill="white"/>
<path opacity="0.07" d="M200.477 52.2258C201.566 52.2258 202.449 51.3375 202.449 50.2418C202.449 49.1461 201.566 48.2578 200.477 48.2578C199.388 48.2578 198.505 49.1461 198.505 50.2418C198.505 51.3375 199.388 52.2258 200.477 52.2258Z" fill="black"/>
<path d="M200.027 51.7726C201.116 51.7726 201.999 50.8844 201.999 49.7887C201.999 48.6929 201.116 47.8047 200.027 47.8047C198.938 47.8047 198.055 48.6929 198.055 49.7887C198.055 50.8844 198.938 51.7726 200.027 51.7726Z" fill="#2618FA"/>
<path opacity="0.07" d="M200.477 69.5563C201.566 69.5563 202.449 68.6681 202.449 67.5723C202.449 66.4766 201.566 65.5884 200.477 65.5884C199.388 65.5884 198.505 66.4766 198.505 67.5723C198.505 68.6681 199.388 69.5563 200.477 69.5563Z" fill="black"/>
<path d="M200.027 69.1032C201.116 69.1032 201.999 68.2149 201.999 67.1192C201.999 66.0235 201.116 65.1353 200.027 65.1353C198.938 65.1353 198.055 66.0235 198.055 67.1192C198.055 68.2149 198.938 69.1032 200.027 69.1032Z" fill="#3A2D55"/>
<path opacity="0.07" d="M200.477 86.6562C201.566 86.6562 202.449 85.7679 202.449 84.6722C202.449 83.5765 201.566 82.6882 200.477 82.6882C199.388 82.6882 198.505 83.5765 198.505 84.6722C198.505 85.7679 199.388 86.6562 200.477 86.6562Z" fill="black"/>
<path d="M200.027 86.203C201.116 86.203 201.999 85.3148 201.999 84.2191C201.999 83.1234 201.116 82.2351 200.027 82.2351C198.938 82.2351 198.055 83.1234 198.055 84.2191C198.055 85.3148 198.938 86.203 200.027 86.203Z" fill="#57D1E5"/>
<path d="M0.498291 73.1335V89.1303C0.498291 93.3247 12.176 96.7244 26.5824 96.7244C40.9888 96.7244 52.6665 93.3247 52.6665 89.1303V73.1335H0.498291Z" fill="#D8E5EB"/>
<path d="M26.5824 80.9232C40.9883 80.9232 52.6665 77.5232 52.6665 73.329C52.6665 69.1349 40.9883 65.7349 26.5824 65.7349C12.1765 65.7349 0.498291 69.1349 0.498291 73.329C0.498291 77.5232 12.1765 80.9232 26.5824 80.9232Z" fill="white"/>
<path d="M26.5824 80.5325C40.9883 80.5325 52.6665 77.1325 52.6665 72.9384C52.6665 68.7443 40.9883 65.3442 26.5824 65.3442C12.1765 65.3442 0.498291 68.7443 0.498291 72.9384C0.498291 77.1325 12.1765 80.5325 26.5824 80.5325Z" fill="#95A7BA"/>
<path d="M0.498291 55.397V71.3937C0.498291 75.5882 12.176 78.9879 26.5824 78.9879C40.9888 78.9879 52.6665 75.5882 52.6665 71.3937V55.397H0.498291Z" fill="#D8E5EB"/>
<path d="M26.5824 63.1866C40.9883 63.1866 52.6665 59.7866 52.6665 55.5924C52.6665 51.3983 40.9883 47.9983 26.5824 47.9983C12.1765 47.9983 0.498291 51.3983 0.498291 55.5924C0.498291 59.7866 12.1765 63.1866 26.5824 63.1866Z" fill="white"/>
<path d="M26.5824 62.796C40.9883 62.796 52.6665 59.396 52.6665 55.2018C52.6665 51.0077 40.9883 47.6077 26.5824 47.6077C12.1765 47.6077 0.498291 51.0077 0.498291 55.2018C0.498291 59.396 12.1765 62.796 26.5824 62.796Z" fill="#95A7BA"/>
<path d="M0.498291 37.7893V53.786C0.498291 57.9805 12.176 61.3802 26.5824 61.3802C40.9888 61.3802 52.6665 57.9805 52.6665 53.786V37.7893H0.498291Z" fill="#D8E5EB"/>
<path d="M26.5824 45.5789C40.9883 45.5789 52.6665 42.1789 52.6665 37.9848C52.6665 33.7906 40.9883 30.3906 26.5824 30.3906C12.1765 30.3906 0.498291 33.7906 0.498291 37.9848C0.498291 42.1789 12.1765 45.5789 26.5824 45.5789Z" fill="white"/>
<path d="M26.5824 45.1883C40.9883 45.1883 52.6665 41.7883 52.6665 37.5942C52.6665 33.4 40.9883 30 26.5824 30C12.1765 30 0.498291 33.4 0.498291 37.5942C0.498291 41.7883 12.1765 45.1883 26.5824 45.1883Z" fill="white"/>
<path opacity="0.07" d="M46.4772 53.2258C47.5662 53.2258 48.449 52.3375 48.449 51.2418C48.449 50.1461 47.5662 49.2578 46.4772 49.2578C45.3882 49.2578 44.5054 50.1461 44.5054 51.2418C44.5054 52.3375 45.3882 53.2258 46.4772 53.2258Z" fill="black"/>
<path d="M46.027 52.7726C47.116 52.7726 47.9988 51.8844 47.9988 50.7887C47.9988 49.6929 47.116 48.8047 46.027 48.8047C44.938 48.8047 44.0552 49.6929 44.0552 50.7887C44.0552 51.8844 44.938 52.7726 46.027 52.7726Z" fill="#2618FA"/>
<path opacity="0.07" d="M46.4772 70.5563C47.5662 70.5563 48.449 69.6681 48.449 68.5723C48.449 67.4766 47.5662 66.5884 46.4772 66.5884C45.3882 66.5884 44.5054 67.4766 44.5054 68.5723C44.5054 69.6681 45.3882 70.5563 46.4772 70.5563Z" fill="black"/>
<path d="M46.027 70.1032C47.116 70.1032 47.9988 69.2149 47.9988 68.1192C47.9988 67.0235 47.116 66.1353 46.027 66.1353C44.938 66.1353 44.0552 67.0235 44.0552 68.1192C44.0552 69.2149 44.938 70.1032 46.027 70.1032Z" fill="#3A2D55"/>
<path opacity="0.07" d="M46.4772 87.6562C47.5662 87.6562 48.449 86.7679 48.449 85.6722C48.449 84.5765 47.5662 83.6882 46.4772 83.6882C45.3882 83.6882 44.5054 84.5765 44.5054 85.6722C44.5054 86.7679 45.3882 87.6562 46.4772 87.6562Z" fill="black"/>
<path d="M46.027 87.203C47.116 87.203 47.9988 86.3148 47.9988 85.2191C47.9988 84.1234 47.116 83.2351 46.027 83.2351C44.938 83.2351 44.0552 84.1234 44.0552 85.2191C44.0552 86.3148 44.938 87.203 46.027 87.203Z" fill="#57D1E5"/>
<path d="M78.4983 43.1335V59.1303C78.4983 63.3247 90.176 66.7244 104.582 66.7244C118.989 66.7244 130.667 63.3247 130.667 59.1303V43.1335H78.4983Z" fill="#616D87"/>
<path d="M104.582 50.9232C118.988 50.9232 130.667 47.5232 130.667 43.329C130.667 39.1349 118.988 35.7349 104.582 35.7349C90.1765 35.7349 78.4983 39.1349 78.4983 43.329C78.4983 47.5232 90.1765 50.9232 104.582 50.9232Z" fill="#95A7BA"/>
<path d="M104.582 50.5325C118.988 50.5325 130.667 47.1325 130.667 42.9384C130.667 38.7443 118.988 35.3442 104.582 35.3442C90.1765 35.3442 78.4983 38.7443 78.4983 42.9384C78.4983 47.1325 90.1765 50.5325 104.582 50.5325Z" fill="#383D57"/>
<path d="M78.4983 25.397V41.3937C78.4983 45.5882 90.176 48.9879 104.582 48.9879C118.989 48.9879 130.667 45.5882 130.667 41.3937V25.397H78.4983Z" fill="#616D87"/>
<path d="M104.582 33.1866C118.988 33.1866 130.667 29.7866 130.667 25.5924C130.667 21.3983 118.988 17.9983 104.582 17.9983C90.1765 17.9983 78.4983 21.3983 78.4983 25.5924C78.4983 29.7866 90.1765 33.1866 104.582 33.1866Z" fill="#95A7BA"/>
<path d="M104.582 32.796C118.988 32.796 130.667 29.396 130.667 25.2018C130.667 21.0077 118.988 17.6077 104.582 17.6077C90.1765 17.6077 78.4983 21.0077 78.4983 25.2018C78.4983 29.396 90.1765 32.796 104.582 32.796Z" fill="#383D57"/>
<path d="M78.4983 7.78931V23.786C78.4983 27.9805 90.176 31.3802 104.582 31.3802C118.989 31.3802 130.667 27.9805 130.667 23.786V7.78931H78.4983Z" fill="#616D87"/>
<path d="M104.582 15.5789C118.988 15.5789 130.667 12.1789 130.667 7.98478C130.667 3.79064 118.988 0.390625 104.582 0.390625C90.1765 0.390625 78.4983 3.79064 78.4983 7.98478C78.4983 12.1789 90.1765 15.5789 104.582 15.5789Z" fill="#95A7BA"/>
<path d="M104.582 15.1883C118.988 15.1883 130.667 11.7883 130.667 7.59415C130.667 3.40002 118.988 0 104.582 0C90.1765 0 78.4983 3.40002 78.4983 7.59415C78.4983 11.7883 90.1765 15.1883 104.582 15.1883Z" fill="#7B8BA2"/>
<path opacity="0.07" d="M124.477 23.2258C125.566 23.2258 126.449 22.3375 126.449 21.2418C126.449 20.1461 125.566 19.2578 124.477 19.2578C123.388 19.2578 122.505 20.1461 122.505 21.2418C122.505 22.3375 123.388 23.2258 124.477 23.2258Z" fill="black"/>
<path d="M124.027 22.7726C125.116 22.7726 125.999 21.8844 125.999 20.7887C125.999 19.6929 125.116 18.8047 124.027 18.8047C122.938 18.8047 122.055 19.6929 122.055 20.7887C122.055 21.8844 122.938 22.7726 124.027 22.7726Z" fill="#FFD400"/>
<path opacity="0.07" d="M124.477 40.5563C125.566 40.5563 126.449 39.6681 126.449 38.5723C126.449 37.4766 125.566 36.5884 124.477 36.5884C123.388 36.5884 122.505 37.4766 122.505 38.5723C122.505 39.6681 123.388 40.5563 124.477 40.5563Z" fill="black"/>
<path d="M124.027 40.1032C125.116 40.1032 125.999 39.2149 125.999 38.1192C125.999 37.0235 125.116 36.1353 124.027 36.1353C122.938 36.1353 122.055 37.0235 122.055 38.1192C122.055 39.2149 122.938 40.1032 124.027 40.1032Z" fill="#E70D6F"/>
<path opacity="0.07" d="M124.477 57.6562C125.566 57.6562 126.449 56.7679 126.449 55.6722C126.449 54.5765 125.566 53.6882 124.477 53.6882C123.388 53.6882 122.505 54.5765 122.505 55.6722C122.505 56.7679 123.388 57.6562 124.477 57.6562Z" fill="black"/>
<path d="M124.027 57.203C125.116 57.203 125.999 56.3148 125.999 55.2191C125.999 54.1234 125.116 53.2351 124.027 53.2351C122.938 53.2351 122.055 54.1234 122.055 55.2191C122.055 56.3148 122.938 57.203 124.027 57.203Z" fill="#C26AFF"/>
<path d="M78.4983 95.1335V111.13C78.4983 115.325 90.176 118.724 104.582 118.724C118.989 118.724 130.667 115.325 130.667 111.13V95.1335H78.4983Z" fill="#D8E5EB"/>
<path d="M104.582 102.923C118.988 102.923 130.667 99.5232 130.667 95.329C130.667 91.1349 118.988 87.7349 104.582 87.7349C90.1765 87.7349 78.4983 91.1349 78.4983 95.329C78.4983 99.5232 90.1765 102.923 104.582 102.923Z" fill="white"/>
<path d="M104.582 102.533C118.988 102.533 130.667 99.1325 130.667 94.9384C130.667 90.7443 118.988 87.3442 104.582 87.3442C90.1765 87.3442 78.4983 90.7443 78.4983 94.9384C78.4983 99.1325 90.1765 102.533 104.582 102.533Z" fill="#95A7BA"/>
<path d="M78.4983 77.397V93.3937C78.4983 97.5882 90.176 100.988 104.582 100.988C118.989 100.988 130.667 97.5882 130.667 93.3937V77.397H78.4983Z" fill="#D8E5EB"/>
<path d="M104.582 85.1866C118.988 85.1866 130.667 81.7866 130.667 77.5924C130.667 73.3983 118.988 69.9983 104.582 69.9983C90.1765 69.9983 78.4983 73.3983 78.4983 77.5924C78.4983 81.7866 90.1765 85.1866 104.582 85.1866Z" fill="white"/>
<path d="M104.582 84.796C118.988 84.796 130.667 81.396 130.667 77.2018C130.667 73.0077 118.988 69.6077 104.582 69.6077C90.1765 69.6077 78.4983 73.0077 78.4983 77.2018C78.4983 81.396 90.1765 84.796 104.582 84.796Z" fill="#95A7BA"/>
<path d="M78.4983 59.7893V75.786C78.4983 79.9805 90.176 83.3802 104.582 83.3802C118.989 83.3802 130.667 79.9805 130.667 75.786V59.7893H78.4983Z" fill="#D8E5EB"/>
<path d="M104.582 67.5789C118.988 67.5789 130.667 64.1789 130.667 59.9848C130.667 55.7906 118.988 52.3906 104.582 52.3906C90.1765 52.3906 78.4983 55.7906 78.4983 59.9848C78.4983 64.1789 90.1765 67.5789 104.582 67.5789Z" fill="white"/>
<path d="M104.582 67.1883C118.988 67.1883 130.667 63.7883 130.667 59.5942C130.667 55.4 118.988 52 104.582 52C90.1765 52 78.4983 55.4 78.4983 59.5942C78.4983 63.7883 90.1765 67.1883 104.582 67.1883Z" fill="white"/>
<path opacity="0.07" d="M124.477 75.2258C125.566 75.2258 126.449 74.3375 126.449 73.2418C126.449 72.1461 125.566 71.2578 124.477 71.2578C123.388 71.2578 122.505 72.1461 122.505 73.2418C122.505 74.3375 123.388 75.2258 124.477 75.2258Z" fill="black"/>
<path d="M124.027 74.7726C125.116 74.7726 125.999 73.8844 125.999 72.7887C125.999 71.6929 125.116 70.8047 124.027 70.8047C122.938 70.8047 122.055 71.6929 122.055 72.7887C122.055 73.8844 122.938 74.7726 124.027 74.7726Z" fill="#2618FA"/>
<path opacity="0.07" d="M124.477 92.5563C125.566 92.5563 126.449 91.6681 126.449 90.5723C126.449 89.4766 125.566 88.5884 124.477 88.5884C123.388 88.5884 122.505 89.4766 122.505 90.5723C122.505 91.6681 123.388 92.5563 124.477 92.5563Z" fill="black"/>
<path d="M124.027 92.1032C125.116 92.1032 125.999 91.2149 125.999 90.1192C125.999 89.0235 125.116 88.1353 124.027 88.1353C122.938 88.1353 122.055 89.0235 122.055 90.1192C122.055 91.2149 122.938 92.1032 124.027 92.1032Z" fill="#3A2D55"/>
<path opacity="0.07" d="M124.477 109.656C125.566 109.656 126.449 108.768 126.449 107.672C126.449 106.576 125.566 105.688 124.477 105.688C123.388 105.688 122.505 106.576 122.505 107.672C122.505 108.768 123.388 109.656 124.477 109.656Z" fill="black"/>
<path d="M124.027 109.203C125.116 109.203 125.999 108.315 125.999 107.219C125.999 106.123 125.116 105.235 124.027 105.235C122.938 105.235 122.055 106.123 122.055 107.219C122.055 108.315 122.938 109.203 124.027 109.203Z" fill="#57D1E5"/>
<path d="M136 67C135.448 67 135 67.4477 135 68L135 77C135 77.5523 135.448 78 136 78C136.552 78 137 77.5523 137 77V69L145 69C145.552 69 146 68.5523 146 68C146 67.4477 145.552 67 145 67L136 67ZM147.707 78.2929L136.707 67.2929L135.293 68.7071L146.293 79.7071L147.707 78.2929Z" fill="#4458A3"/>
<path d="M62 52C61.4477 52 61 51.5523 61 51L61 42C61 41.4477 61.4477 41 62 41C62.5523 41 63 41.4477 63 42L63 50L71 50C71.5523 50 72 50.4477 72 51C72 51.5523 71.5523 52 71 52L62 52ZM73.7071 40.7071L62.7071 51.7071L61.2929 50.2929L72.2929 39.2929L73.7071 40.7071Z" fill="#57D1E5"/>
<path d="M147 52C147.552 52 148 51.5523 148 51L148 42C148 41.4477 147.552 41 147 41C146.448 41 146 41.4477 146 42L146 50L138 50C137.448 50 137 50.4477 137 51C137 51.5523 137.448 52 138 52L147 52ZM135.293 40.7071L146.293 51.7071L147.707 50.2929L136.707 39.2929L135.293 40.7071Z" fill="#57D1E5"/>
<path d="M73 67C73.5523 67 74 67.4477 74 68L74 77C74 77.5523 73.5523 78 73 78C72.4477 78 72 77.5523 72 77L72 69L64 69C63.4477 69 63 68.5523 63 68C63 67.4477 63.4477 67 64 67L73 67ZM61.2929 78.2929L72.2929 67.2929L73.7071 68.7071L62.7071 79.7071L61.2929 78.2929Z" fill="#4458A3"/>
</svg>
