<svg width="180" height="90" viewBox="0 0 180 90" fill="none" xmlns="http://www.w3.org/2000/svg">
<path d="M127.165 43.1335V59.1303C127.165 63.3247 138.843 66.7244 153.249 66.7244C167.656 66.7244 179.333 63.3247 179.333 59.1303V43.1335H127.165Z" fill="#D8E5EB"/>
<path d="M153.249 50.9232C167.655 50.9232 179.333 47.5232 179.333 43.329C179.333 39.1349 167.655 35.7349 153.249 35.7349C138.843 35.7349 127.165 39.1349 127.165 43.329C127.165 47.5232 138.843 50.9232 153.249 50.9232Z" fill="white"/>
<path d="M153.249 50.5325C167.655 50.5325 179.333 47.1325 179.333 42.9384C179.333 38.7443 167.655 35.3442 153.249 35.3442C138.843 35.3442 127.165 38.7443 127.165 42.9384C127.165 47.1325 138.843 50.5325 153.249 50.5325Z" fill="#95A7BA"/>
<path d="M127.165 25.397V41.3937C127.165 45.5882 138.843 48.9879 153.249 48.9879C167.656 48.9879 179.333 45.5882 179.333 41.3937V25.397H127.165Z" fill="#D8E5EB"/>
<path d="M153.249 33.1866C167.655 33.1866 179.333 29.7866 179.333 25.5924C179.333 21.3983 167.655 17.9983 153.249 17.9983C138.843 17.9983 127.165 21.3983 127.165 25.5924C127.165 29.7866 138.843 33.1866 153.249 33.1866Z" fill="white"/>
<path d="M153.249 32.796C167.655 32.796 179.333 29.396 179.333 25.2018C179.333 21.0077 167.655 17.6077 153.249 17.6077C138.843 17.6077 127.165 21.0077 127.165 25.2018C127.165 29.396 138.843 32.796 153.249 32.796Z" fill="#95A7BA"/>
<path d="M127.165 7.78931V23.786C127.165 27.9805 138.843 31.3802 153.249 31.3802C167.656 31.3802 179.333 27.9805 179.333 23.786V7.78931H127.165Z" fill="#D8E5EB"/>
<path d="M153.249 15.5789C167.655 15.5789 179.333 12.1789 179.333 7.98478C179.333 3.79064 167.655 0.390625 153.249 0.390625C138.843 0.390625 127.165 3.79064 127.165 7.98478C127.165 12.1789 138.843 15.5789 153.249 15.5789Z" fill="white"/>
<path d="M153.249 15.1883C167.655 15.1883 179.333 11.7883 179.333 7.59415C179.333 3.40002 167.655 0 153.249 0C138.843 0 127.165 3.40002 127.165 7.59415C127.165 11.7883 138.843 15.1883 153.249 15.1883Z" fill="white"/>
<path opacity="0.07" d="M173.144 23.2258C174.233 23.2258 175.116 22.3375 175.116 21.2418C175.116 20.1461 174.233 19.2578 173.144 19.2578C172.055 19.2578 171.172 20.1461 171.172 21.2418C171.172 22.3375 172.055 23.2258 173.144 23.2258Z" fill="black"/>
<path d="M172.694 22.7726C173.783 22.7726 174.666 21.8844 174.666 20.7887C174.666 19.6929 173.783 18.8047 172.694 18.8047C171.605 18.8047 170.722 19.6929 170.722 20.7887C170.722 21.8844 171.605 22.7726 172.694 22.7726Z" fill="#2618FA"/>
<path opacity="0.07" d="M173.144 40.5563C174.233 40.5563 175.116 39.6681 175.116 38.5723C175.116 37.4766 174.233 36.5884 173.144 36.5884C172.055 36.5884 171.172 37.4766 171.172 38.5723C171.172 39.6681 172.055 40.5563 173.144 40.5563Z" fill="black"/>
<path d="M172.694 40.1032C173.783 40.1032 174.666 39.2149 174.666 38.1192C174.666 37.0235 173.783 36.1353 172.694 36.1353C171.605 36.1353 170.722 37.0235 170.722 38.1192C170.722 39.2149 171.605 40.1032 172.694 40.1032Z" fill="#3A2D55"/>
<path opacity="0.07" d="M173.144 57.6562C174.233 57.6562 175.116 56.7679 175.116 55.6722C175.116 54.5765 174.233 53.6882 173.144 53.6882C172.055 53.6882 171.172 54.5765 171.172 55.6722C171.172 56.7679 172.055 57.6562 173.144 57.6562Z" fill="black"/>
<path d="M172.694 57.203C173.783 57.203 174.666 56.3148 174.666 55.2191C174.666 54.1234 173.783 53.2351 172.694 53.2351C171.605 53.2351 170.722 54.1234 170.722 55.2191C170.722 56.3148 171.605 57.203 172.694 57.203Z" fill="#57D1E5"/>
<path d="M0.165039 43.1335V59.1303C0.165039 63.3247 11.8427 66.7244 26.2492 66.7244C40.6556 66.7244 52.3333 63.3247 52.3333 59.1303V43.1335H0.165039Z" fill="#D8E5EB"/>
<path d="M26.2492 50.9232C40.655 50.9232 52.3333 47.5232 52.3333 43.329C52.3333 39.1349 40.655 35.7349 26.2492 35.7349C11.8433 35.7349 0.165039 39.1349 0.165039 43.329C0.165039 47.5232 11.8433 50.9232 26.2492 50.9232Z" fill="white"/>
<path d="M26.2492 50.5325C40.655 50.5325 52.3333 47.1325 52.3333 42.9384C52.3333 38.7443 40.655 35.3442 26.2492 35.3442C11.8433 35.3442 0.165039 38.7443 0.165039 42.9384C0.165039 47.1325 11.8433 50.5325 26.2492 50.5325Z" fill="#95A7BA"/>
<path d="M0.165039 25.397V41.3937C0.165039 45.5882 11.8427 48.9879 26.2492 48.9879C40.6556 48.9879 52.3333 45.5882 52.3333 41.3937V25.397H0.165039Z" fill="#D8E5EB"/>
<path d="M26.2492 33.1866C40.655 33.1866 52.3333 29.7866 52.3333 25.5924C52.3333 21.3983 40.655 17.9983 26.2492 17.9983C11.8433 17.9983 0.165039 21.3983 0.165039 25.5924C0.165039 29.7866 11.8433 33.1866 26.2492 33.1866Z" fill="white"/>
<path d="M26.2492 32.796C40.655 32.796 52.3333 29.396 52.3333 25.2018C52.3333 21.0077 40.655 17.6077 26.2492 17.6077C11.8433 17.6077 0.165039 21.0077 0.165039 25.2018C0.165039 29.396 11.8433 32.796 26.2492 32.796Z" fill="#95A7BA"/>
<path d="M0.165039 7.78931V23.786C0.165039 27.9805 11.8427 31.3802 26.2492 31.3802C40.6556 31.3802 52.3333 27.9805 52.3333 23.786V7.78931H0.165039Z" fill="#D8E5EB"/>
<path d="M26.2492 15.5789C40.655 15.5789 52.3333 12.1789 52.3333 7.98478C52.3333 3.79064 40.655 0.390625 26.2492 0.390625C11.8433 0.390625 0.165039 3.79064 0.165039 7.98478C0.165039 12.1789 11.8433 15.5789 26.2492 15.5789Z" fill="white"/>
<path d="M26.2492 15.1883C40.655 15.1883 52.3333 11.7883 52.3333 7.59415C52.3333 3.40002 40.655 0 26.2492 0C11.8433 0 0.165039 3.40002 0.165039 7.59415C0.165039 11.7883 11.8433 15.1883 26.2492 15.1883Z" fill="white"/>
<path opacity="0.07" d="M46.1439 23.2258C47.233 23.2258 48.1158 22.3375 48.1158 21.2418C48.1158 20.1461 47.233 19.2578 46.1439 19.2578C45.0549 19.2578 44.1721 20.1461 44.1721 21.2418C44.1721 22.3375 45.0549 23.2258 46.1439 23.2258Z" fill="black"/>
<path d="M45.6938 22.7726C46.7828 22.7726 47.6656 21.8844 47.6656 20.7887C47.6656 19.6929 46.7828 18.8047 45.6938 18.8047C44.6047 18.8047 43.7219 19.6929 43.7219 20.7887C43.7219 21.8844 44.6047 22.7726 45.6938 22.7726Z" fill="#2618FA"/>
<path opacity="0.07" d="M46.1439 40.5563C47.233 40.5563 48.1158 39.6681 48.1158 38.5723C48.1158 37.4766 47.233 36.5884 46.1439 36.5884C45.0549 36.5884 44.1721 37.4766 44.1721 38.5723C44.1721 39.6681 45.0549 40.5563 46.1439 40.5563Z" fill="black"/>
<path d="M45.6938 40.1032C46.7828 40.1032 47.6656 39.2149 47.6656 38.1192C47.6656 37.0235 46.7828 36.1353 45.6938 36.1353C44.6047 36.1353 43.7219 37.0235 43.7219 38.1192C43.7219 39.2149 44.6047 40.1032 45.6938 40.1032Z" fill="#3A2D55"/>
<path opacity="0.07" d="M46.1439 57.6562C47.233 57.6562 48.1158 56.7679 48.1158 55.6722C48.1158 54.5765 47.233 53.6882 46.1439 53.6882C45.0549 53.6882 44.1721 54.5765 44.1721 55.6722C44.1721 56.7679 45.0549 57.6562 46.1439 57.6562Z" fill="black"/>
<path d="M45.6938 57.203C46.7828 57.203 47.6656 56.3148 47.6656 55.2191C47.6656 54.1234 46.7828 53.2351 45.6938 53.2351C44.6047 53.2351 43.7219 54.1234 43.7219 55.2191C43.7219 56.3148 44.6047 57.203 45.6938 57.203Z" fill="#57D1E5"/>
<path d="M64.165 66.1335V82.1303C64.165 86.3247 75.8427 89.7244 90.2492 89.7244C104.656 89.7244 116.333 86.3247 116.333 82.1303V66.1335H64.165Z" fill="#D8E5EB"/>
<path d="M90.2492 73.9232C104.655 73.9232 116.333 70.5232 116.333 66.329C116.333 62.1349 104.655 58.7349 90.2492 58.7349C75.8433 58.7349 64.165 62.1349 64.165 66.329C64.165 70.5232 75.8433 73.9232 90.2492 73.9232Z" fill="white"/>
<path d="M90.2492 73.5325C104.655 73.5325 116.333 70.1325 116.333 65.9384C116.333 61.7443 104.655 58.3442 90.2492 58.3442C75.8433 58.3442 64.165 61.7443 64.165 65.9384C64.165 70.1325 75.8433 73.5325 90.2492 73.5325Z" fill="#95A7BA"/>
<path d="M64.165 48.397V64.3937C64.165 68.5882 75.8427 71.9879 90.2492 71.9879C104.656 71.9879 116.333 68.5882 116.333 64.3937V48.397H64.165Z" fill="#D8E5EB"/>
<path d="M90.2492 56.1866C104.655 56.1866 116.333 52.7866 116.333 48.5924C116.333 44.3983 104.655 40.9983 90.2492 40.9983C75.8433 40.9983 64.165 44.3983 64.165 48.5924C64.165 52.7866 75.8433 56.1866 90.2492 56.1866Z" fill="white"/>
<path d="M90.2492 55.796C104.655 55.796 116.333 52.396 116.333 48.2018C116.333 44.0077 104.655 40.6077 90.2492 40.6077C75.8433 40.6077 64.165 44.0077 64.165 48.2018C64.165 52.396 75.8433 55.796 90.2492 55.796Z" fill="#95A7BA"/>
<path d="M64.165 30.7893V46.786C64.165 50.9805 75.8427 54.3802 90.2492 54.3802C104.656 54.3802 116.333 50.9805 116.333 46.786V30.7893H64.165Z" fill="#D8E5EB"/>
<path d="M90.2492 38.5789C104.655 38.5789 116.333 35.1789 116.333 30.9848C116.333 26.7906 104.655 23.3906 90.2492 23.3906C75.8433 23.3906 64.165 26.7906 64.165 30.9848C64.165 35.1789 75.8433 38.5789 90.2492 38.5789Z" fill="white"/>
<path d="M90.2492 38.1883C104.655 38.1883 116.333 34.7883 116.333 30.5942C116.333 26.4 104.655 23 90.2492 23C75.8433 23 64.165 26.4 64.165 30.5942C64.165 34.7883 75.8433 38.1883 90.2492 38.1883Z" fill="white"/>
<path opacity="0.07" d="M110.144 46.2258C111.233 46.2258 112.116 45.3375 112.116 44.2418C112.116 43.1461 111.233 42.2578 110.144 42.2578C109.055 42.2578 108.172 43.1461 108.172 44.2418C108.172 45.3375 109.055 46.2258 110.144 46.2258Z" fill="black"/>
<path d="M109.694 45.7726C110.783 45.7726 111.666 44.8844 111.666 43.7887C111.666 42.6929 110.783 41.8047 109.694 41.8047C108.605 41.8047 107.722 42.6929 107.722 43.7887C107.722 44.8844 108.605 45.7726 109.694 45.7726Z" fill="#2618FA"/>
<path opacity="0.07" d="M110.144 63.5563C111.233 63.5563 112.116 62.6681 112.116 61.5723C112.116 60.4766 111.233 59.5884 110.144 59.5884C109.055 59.5884 108.172 60.4766 108.172 61.5723C108.172 62.6681 109.055 63.5563 110.144 63.5563Z" fill="black"/>
<path d="M109.694 63.1032C110.783 63.1032 111.666 62.2149 111.666 61.1192C111.666 60.0235 110.783 59.1353 109.694 59.1353C108.605 59.1353 107.722 60.0235 107.722 61.1192C107.722 62.2149 108.605 63.1032 109.694 63.1032Z" fill="#3A2D55"/>
<path opacity="0.07" d="M110.144 80.6562C111.233 80.6562 112.116 79.7679 112.116 78.6722C112.116 77.5765 111.233 76.6882 110.144 76.6882C109.055 76.6882 108.172 77.5765 108.172 78.6722C108.172 79.7679 109.055 80.6562 110.144 80.6562Z" fill="black"/>
<path d="M109.694 80.203C110.783 80.203 111.666 79.3148 111.666 78.2191C111.666 77.1234 110.783 76.2351 109.694 76.2351C108.605 76.2351 107.722 77.1234 107.722 78.2191C107.722 79.3148 108.605 80.203 109.694 80.203Z" fill="#57D1E5"/>
</svg>
